<svg width="117" height="117" viewBox="0 0 117 117" fill="none" xmlns="http://www.w3.org/2000/svg">
<path d="M79.8662 40.333H74.5075C73.3421 40.333 72.2338 40.8929 71.5482 41.8526L53.5869 66.7608L45.4517 55.4722C44.7662 54.5238 43.6693 53.9525 42.4925 53.9525H37.1338C36.3911 53.9525 35.9569 54.798 36.3911 55.4036L50.6276 75.1474C50.9639 75.6168 51.4073 75.9993 51.9209 76.2631C52.4346 76.527 53.0037 76.6646 53.5812 76.6646C54.1586 76.6646 54.7278 76.527 55.2414 76.2631C55.7551 75.9993 56.1984 75.6168 56.5347 75.1474L80.5975 41.7841C81.0431 41.1785 80.6089 40.333 79.8662 40.333Z" fill="#4C12A1"/>
<path d="M58.5 7.3125C30.2326 7.3125 7.3125 30.2326 7.3125 58.5C7.3125 86.7674 30.2326 109.688 58.5 109.688C86.7674 109.688 109.688 86.7674 109.688 58.5C109.688 30.2326 86.7674 7.3125 58.5 7.3125ZM58.5 101.004C35.0314 101.004 15.9961 81.9686 15.9961 58.5C15.9961 35.0314 35.0314 15.9961 58.5 15.9961C81.9686 15.9961 101.004 35.0314 101.004 58.5C101.004 81.9686 81.9686 101.004 58.5 101.004Z" fill="#4C12A1"/>
</svg>
