<svg width="33" height="30" viewBox="0 0 33 30" fill="none" xmlns="http://www.w3.org/2000/svg">
<ellipse cx="16.5" cy="15" rx="16.5" ry="14" fill="#E9C33E"/>
<path d="M22.656 19.176C22.656 20.472 22.2 21.568 21.288 22.464C20.392 23.344 19.184 23.896 17.664 24.12V26.784H15.216V24.168C14.144 24.088 13.144 23.88 12.216 23.544C11.304 23.208 10.504 22.752 9.816 22.176L10.872 19.92C12.264 21.008 13.768 21.608 15.384 21.72V16.728C14.312 16.456 13.408 16.16 12.672 15.84C11.936 15.504 11.32 15.016 10.824 14.376C10.328 13.72 10.08 12.872 10.08 11.832C10.08 10.968 10.296 10.184 10.728 9.48C11.16 8.76 11.76 8.168 12.528 7.704C13.312 7.224 14.208 6.92 15.216 6.792V4.128H17.664V6.768C18.592 6.88 19.464 7.104 20.28 7.44C21.096 7.776 21.784 8.2 22.344 8.712L21.288 10.968C20.12 10.008 18.856 9.432 17.496 9.24V14.448C18.568 14.72 19.456 15.016 20.16 15.336C20.864 15.64 21.456 16.104 21.936 16.728C22.416 17.352 22.656 18.168 22.656 19.176ZM13.176 11.664C13.176 12.224 13.368 12.68 13.752 13.032C14.136 13.368 14.68 13.656 15.384 13.896V9.264C14.696 9.408 14.152 9.688 13.752 10.104C13.368 10.52 13.176 11.04 13.176 11.664ZM17.496 21.6C18.168 21.456 18.68 21.192 19.032 20.808C19.384 20.408 19.56 19.896 19.56 19.272C19.56 18.776 19.384 18.376 19.032 18.072C18.68 17.768 18.168 17.512 17.496 17.304V21.6Z" fill="black"/>
</svg>
