<svg id="Layer_1" data-name="Layer 1" xmlns="http://www.w3.org/2000/svg" viewBox="0 0 464 512"><title>copy</title><path d="M886,672c-2.67-.76-5.36-1.5-8-2.28-23-6.81-39.79-28.36-39.83-52.4q-.23-157.41,0-314.82c0-29.22,23.28-56.27,59.55-56,69,.52,137.92.13,206.88.16,13.32,0,26.66-.18,40,.38,26.93,1.14,49.57,23.6,51.58,50.61.13,1.8.6,3.57.91,5.35V616a36.79,36.79,0,0,0-.87,4.35c-2.1,24.63-18.52,44-42.44,50.08-1.91.49-3.79,1.05-5.69,1.57Zm-5.31-212.71V614.78c0,9.56,5.19,14.81,14.79,14.81H1139c9.71,0,15.06-5.41,15.06-15.21v-310c0-10-5.46-15.39-15.46-15.39H896.09c-10.19,0-15.4,5.19-15.4,15.29Z" transform="translate(-733 -160)" style="fill:#e6e7e8"/><path d="M1042,160c1.24.44,2.47.9,3.72,1.31,10.76,3.52,17.18,12.61,16.21,22.95-.83,8.94-9.29,16.4-20.22,17.64a89.61,89.61,0,0,1-10,.52q-120.22,0-240.46,0c-10,0-15.29,5.31-15.3,15.47q0,127,0,254a49.49,49.49,0,0,1-1,10.88c-2.54,11.13-11.8,18.72-21.48,18-10.24-.77-18.22-9.29-19.37-20.85-.34-3.48-.42-7-.43-10.48q-.09-93.49-.15-187c0-2.47-.32-4.95-.49-7.42V216a36.79,36.79,0,0,0,.87-4.35c2.12-24.64,18.53-44,42.44-50.08,1.91-.49,3.79-1,5.69-1.57Z" transform="translate(-733 -160)" style="fill:#e6e7e8"/></svg>