<svg width="72" height="60" viewBox="0 0 72 60" fill="none" xmlns="http://www.w3.org/2000/svg">
<path d="M16.4595 42.6071H59.6085L71.9375 11.7871H16.8995L12.3975 0.953125H0.0625V7.11513H8.3905L10.3115 11.7871H10.2945L16.4595 42.6071Z" fill="white"/>
<path d="M21.2372 46.7188C17.8332 46.7188 15.0762 49.4788 15.0762 52.8828C15.0762 56.2888 17.8332 59.0447 21.2372 59.0447C24.6432 59.0447 27.4042 56.2888 27.4042 52.8828C27.4042 49.4788 24.6432 46.7188 21.2372 46.7188Z" fill="white"/>
<path d="M53.8681 59.0447C57.2718 59.0447 60.0311 56.2855 60.0311 52.8818C60.0311 49.478 57.2718 46.7188 53.8681 46.7188C50.4643 46.7188 47.7051 49.478 47.7051 52.8818C47.7051 56.2855 50.4643 59.0447 53.8681 59.0447Z" fill="white"/>
</svg>
